<svg xmlns="http://www.w3.org/2000/svg" xmlns:xlink="http://www.w3.org/1999/xlink" version="1.1" baseProfile="full" width="176.118" height="33.375" viewBox="0 0 176.12 33.38" enable-background="new 0 0 176.12 33.38" xml:space="preserve">
	<path fill="#FFFFFF" fill-opacity="1" stroke-linejoin="round" d="M 5.10095,7.87009C 5.10095,5.53821 6.15759,4.66376 7.76077,4.66376C 9.40039,4.66376 10.4206,5.53821 10.4206,7.87009L 10.4206,25.5049C 10.4206,27.8368 9.40039,28.7112 7.76077,28.7112C 6.15759,28.7112 5.10095,27.8368 5.10095,25.5049L 5.10095,7.87009 Z M 0,25.177C 0,30.3873 2.73267,33.375 7.76077,33.375C 12.8253,33.375 15.558,30.3873 15.558,25.177L 15.558,8.198C 15.558,2.98773 12.8253,0 7.76077,0C 2.73267,0 0,2.98773 0,8.198L 0,25.177 Z "/>
	<path fill="#FFFFFF" fill-opacity="1" stroke-linejoin="round" d="M 26.9524,33.0107L 32.2355,33.0107L 32.2355,0.364349L 27.6447,0.364349L 27.6447,19.8939L 22.3979,0.364349L 15.9488,0.364349L 15.9488,33.0107L 20.5761,33.0107L 20.5761,9.36395L 26.9524,33.0107 Z "/>
	<path fill="#FFFFFF" fill-opacity="1" stroke-linejoin="round" d="M 32.9897,5.02811L 41.8436,5.02811L 41.8436,0.364349L 27.8523,0.364349L 27.8523,33.0107L 41.8436,33.0107L 41.8436,28.3469L 32.9897,28.3469L 32.9897,18.8008L 40.0218,18.8008L 40.0218,14.137L 32.9897,14.137L 32.9897,5.02811 Z "/>
	<path fill="#66BFDD" fill-opacity="1" stroke-linejoin="round" d="M 42.15,33.0107L 50.2751,33.0107C 55.4126,33.0107 57.9266,30.1687 57.9266,24.9584L 57.9266,8.41663C 57.9266,3.20633 55.4126,0.364349 50.2751,0.364349L 42.15,0.364349L 42.15,33.0107 Z M 50.1658,5.02811C 51.8055,5.02811 52.7892,5.86615 52.7892,8.198L 52.7892,25.177C 52.7892,27.5089 51.8055,28.3469 50.1658,28.3469L 47.2874,28.3469L 47.2874,5.02811L 50.1658,5.02811 Z "/>
	<path fill="#66BFDD" fill-opacity="1" stroke-linejoin="round" d="M 63.3402,7.87009C 63.3402,5.53821 64.3969,4.66376 66,4.66376C 67.6396,4.66376 68.6598,5.53821 68.6598,7.87009L 68.6598,25.5049C 68.6598,27.8368 67.6396,28.7112 66,28.7112C 64.3969,28.7112 63.3402,27.8368 63.3402,25.5049L 63.3402,7.87009 Z M 58.2392,25.177C 58.2392,30.3873 60.9719,33.375 66,33.375C 71.0646,33.375 73.7972,30.3873 73.7972,25.177L 73.7972,8.198C 73.7972,2.98773 71.0646,0 66,0C 60.9719,0 58.2392,2.98773 58.2392,8.198L 58.2392,25.177 Z "/>
	<path fill="#66BFDD" fill-opacity="1" stroke-linejoin="round" d="M 73.0642,5.02811L 78.4203,5.02811L 78.4203,33.0107L 83.5577,33.0107L 83.5577,5.02811L 88.9137,5.02811L 88.9137,0.364349L 73.0642,0.364349L 73.0642,5.02811 Z "/>
	<path fill="#FFFFFF" fill-opacity="1" stroke-linejoin="round" d="M 93.4213,5.02811L 102.275,5.02811L 102.275,0.364349L 88.2839,0.364349L 88.2839,33.0107L 102.275,33.0107L 102.275,28.3469L 93.4213,28.3469L 93.4213,18.8008L 100.453,18.8008L 100.453,14.137L 93.4213,14.137L 93.4213,5.02811 Z "/>
	<path fill="#FFFFFF" fill-opacity="1" stroke-linejoin="round" d="M 102.534,33.0107L 116.124,33.0107L 116.124,28.3469L 107.671,28.3469L 107.671,0.364349L 102.534,0.364349L 102.534,33.0107 Z "/>
	<path fill="#FFFFFF" fill-opacity="1" stroke-linejoin="round" d="M 120.539,5.02811L 129.393,5.02811L 129.393,0.364349L 115.402,0.364349L 115.402,33.0107L 129.393,33.0107L 129.393,28.3469L 120.539,28.3469L 120.539,18.8008L 127.571,18.8008L 127.571,14.137L 120.539,14.137L 120.539,5.02811 Z "/>
	<path fill="#FFFFFF" fill-opacity="1" stroke-linejoin="round" d="M 133.525,0.364349L 128.351,0.364349L 133.379,33.0107L 141.031,33.0107L 146.059,0.364349L 141.359,0.364349L 137.46,26.9988L 133.525,0.364349 Z "/>
	<path fill="#FFFFFF" fill-opacity="1" stroke-linejoin="round" d="M 150.755,5.02811L 159.609,5.02811L 159.609,0.364349L 145.618,0.364349L 145.618,33.0107L 159.609,33.0107L 159.609,28.3469L 150.755,28.3469L 150.755,18.8008L 157.787,18.8008L 157.787,14.137L 150.755,14.137L 150.755,5.02811 Z "/>
	<path fill="#FFFFFF" fill-opacity="1" stroke-linejoin="round" d="M 170.835,33.0107L 176.118,33.0107L 176.118,0.364349L 171.527,0.364349L 171.527,19.8939L 166.28,0.364349L 159.831,0.364349L 159.831,33.0107L 164.458,33.0107L 164.458,9.36395L 170.835,33.0107 Z "/>
</svg>