<svg xmlns="http://www.w3.org/2000/svg" xmlns:xlink="http://www.w3.org/1999/xlink" version="1.1" baseProfile="full" width="227.821" height="118.437" viewBox="0 0 227.82 118.44" enable-background="new 0 0 227.82 118.44" xml:space="preserve">
	<ellipse fill="#FFFFFF" fill-opacity="1" stroke-width="0.2" stroke-linejoin="round" cx="170.331" cy="59.3126" rx="57.3868" ry="57.9579"/>
	<path fill="#66BFDD" fill-opacity="1" stroke-width="0.2" stroke-linejoin="round" d="M 196.746,67.4222L 178.502,67.4222L 178.502,116.361C 184.998,115.399 191.146,113.4 196.746,110.47L 196.746,67.4222 Z "/>
	<path fill="#66BFDD" fill-opacity="1" stroke-width="0.2" stroke-linejoin="round" d="M 227.821,59.225C 227.821,27.2932 201.944,1.39204 170,1.39204C 147.071,1.39204 127.321,14.7834 117.976,34.1332L 117.976,50.5974L 112.9,50.5974C 112.477,53.4212 112.187,56.2839 112.187,59.225C 112.187,85.8258 130.161,108.168 154.607,114.917L 154.607,67.4225L 136.141,67.4225L 136.141,50.4763C 154.607,50.4763 158.733,41.5708 162.424,31.3603L 178.503,31.3603L 178.503,50.4687C 196.77,50.3933 200.888,41.5289 204.564,31.3603L 220.639,31.3603L 220.639,87.1278C 225.208,78.8534 227.821,69.3456 227.821,59.225 Z "/>
	<path fill="#1D1D1B" fill-opacity="1" stroke-width="0.2" stroke-linejoin="round" d="M 37.039,90.4988C 37.039,98.7579 33.3982,101.899 27.6142,101.899C 21.8218,101.899 18.1925,98.7579 18.1925,90.4988L 18.1925,27.9972C 18.1925,19.7381 21.8218,16.5975 27.6142,16.5975C 33.3982,16.5975 37.039,19.7381 37.039,27.9972M 99.1256,27.9782C 99.1256,19.6985 102.767,16.5579 108.569,16.5579C 114.354,16.5579 117.976,19.6985 117.976,27.9782L 117.976,50.5972L 99.1256,50.5972M 117.984,84.4019L 117.976,84.4019L 117.976,90.4798C 117.976,98.7396 114.354,101.882 108.569,101.882C 102.767,101.882 99.1256,98.7396 99.1256,90.4798L 99.1172,67.5311L 105.309,67.4923L 132.331,67.4923L 136.177,67.4923L 136.177,29.1232C 136.177,10.6102 126.419,0.0388947 108.569,0.0388947C 90.702,0.0388947 80.9438,10.6102 80.9438,29.1232L 80.9438,50.5781L 61.8293,1.52588e-005L 27.6142,1.52588e-005L 27.6142,0.0556183C 9.75746,0.0556183 -3.05176e-005,10.6254 -3.05176e-005,29.1628L -3.05176e-005,89.3331C -3.05176e-005,107.851 9.75746,118.437 27.6142,118.437C 45.4663,118.437 55.2231,107.851 55.2231,89.3331L 55.2231,67.8829L 55.2231,32.6704L 83.4197,103.47L 83.5842,103.545C 87.55,113.071 95.9743,118.383 108.512,118.401L 108.569,118.401C 120.956,118.401 129.434,113.302 133.47,104.004C 126.981,98.6993 121.675,92.023 117.984,84.4019 Z "/>
</svg>
